<?xml version="1.0" standalone="no"?>
<!DOCTYPE svg PUBLIC "-//W3C//DTD SVG 20010904//EN"
 "http://www.w3.org/TR/2001/REC-SVG-20010904/DTD/svg10.dtd">
<svg version="1.0" xmlns="http://www.w3.org/2000/svg"
 width="500.000000pt" height="500.000000pt" viewBox="0 0 500.000000 500.000000"
 preserveAspectRatio="xMidYMid meet">

<g transform="translate(0.000000,500.000000) scale(0.100000,-0.100000)"
fill="#ffffff" stroke="none">
<path d="M0 2500 l0 -2500 2500 0 2500 0 0 2500 0 2500 -2500 0 -2500 0 0
-2500z m1670 1009 l0 -1171 -34 26 c-33 25 -56 33 -56 20 0 -4 9 -22 21 -40
19 -31 19 -54 0 -54 -5 0 -23 42 -41 93 -18 50 -44 115 -58 142 -27 56 -120
185 -132 185 -4 0 1 -31 11 -70 10 -38 22 -102 28 -142 12 -84 41 -174 73
-226 13 -22 16 -32 7 -27 -8 5 -36 23 -64 40 -27 18 -93 53 -145 78 -117 58
-183 107 -227 171 -28 41 -33 45 -33 24 0 -34 61 -155 103 -206 51 -60 144
-138 199 -166 40 -20 45 -26 33 -36 -15 -12 -20 -10 -81 35 -25 18 -26 -4 -1
-36 l25 -33 -249 -144 c-138 -79 -251 -143 -253 -141 -2 2 -7 644 -10 1427
l-7 1422 445 0 446 0 0 -1171z m2538 -5 l-3 -1176 -345 -200 c-190 -109 -365
-211 -390 -225 l-45 -26 24 26 c32 35 20 45 -27 23 -20 -10 -49 -22 -64 -27
-25 -7 -28 -5 -28 17 0 18 7 25 28 29 152 32 277 109 344 214 39 62 35 68 -14
28 -80 -64 -155 -91 -287 -103 -67 -6 -73 -6 -70 11 3 15 26 23 116 41 131 25
214 62 299 130 113 91 196 213 210 309 l6 40 -29 -45 c-48 -73 -123 -133 -261
-204 -71 -37 -152 -85 -180 -106 l-51 -39 34 44 c45 60 72 136 96 274 10 64
24 131 30 149 9 28 6 55 -4 41 -28 -34 -100 -144 -117 -178 -12 -24 -39 -95
-61 -159 -22 -63 -50 -133 -62 -156 l-22 -41 -3 37 c-2 25 6 55 28 98 33 65
33 85 2 57 -10 -10 -22 -17 -25 -17 -4 0 -7 413 -7 918 l1 917 32 -36 c17 -20
59 -71 92 -114 53 -69 222 -231 231 -222 7 7 -46 151 -72 195 -48 81 -93 121
-191 169 l-93 45 0 219 0 219 440 0 440 0 -2 -1176z m-1309 264 c-1 -255 -5
-728 -8 -1052 l-6 -589 -83 -47 c-76 -44 -90 -48 -175 -55 -51 -4 -112 -7
-137 -7 -272 5 -275 4 -332 -15 -44 -15 -58 -17 -58 -7 0 7 6 15 13 18 10 5
10 7 0 12 -10 4 -13 235 -13 1105 l0 1099 400 0 400 0 -1 -462z m-489 -1792
c0 -2 -33 -22 -73 -44 -40 -22 -110 -70 -155 -106 l-82 -66 0 35 c0 32 6 38
88 94 87 58 156 90 200 91 12 0 22 -2 22 -4z m108 -45 c9 -5 -27 -31 -115 -81
-70 -40 -139 -79 -153 -87 -47 -28 75 77 148 127 73 50 95 57 120 41z"/>
<path d="M1549 4189 c-108 -52 -140 -77 -188 -147 -34 -51 -98 -222 -82 -222
20 0 166 146 225 224 37 50 80 105 95 121 41 46 54 65 44 65 -5 0 -47 -18 -94
-41z"/>
<path d="M1289 4052 c-128 -82 -174 -201 -158 -410 4 -53 5 -107 2 -119 -8
-35 12 -27 40 16 14 21 51 61 83 87 118 101 155 138 187 188 37 55 73 143 64
152 -3 3 -22 -13 -43 -35 -20 -23 -74 -71 -120 -106 -45 -36 -97 -82 -114
-102 -18 -21 -30 -31 -28 -23 13 38 40 133 59 209 15 56 33 97 55 127 39 51
34 54 -27 16z"/>
<path d="M1093 3848 c-12 -13 -38 -57 -59 -98 -36 -71 -38 -80 -42 -190 -4
-114 -4 -119 35 -236 22 -65 46 -139 53 -164 l13 -45 18 54 c11 30 57 111 103
180 94 143 111 172 137 249 30 86 24 90 -38 31 -137 -131 -168 -169 -197 -250
l-17 -44 5 61 c3 34 -1 120 -9 191 -15 131 -10 217 15 263 14 26 9 25 -17 -2z"/>
<path d="M929 3395 c-19 -81 -16 -235 6 -310 25 -87 76 -179 145 -264 34 -40
65 -82 71 -92 19 -36 27 -18 31 74 4 65 16 129 41 217 42 147 59 246 55 321
l-3 54 -26 -45 c-15 -25 -51 -97 -80 -160 -45 -99 -53 -126 -58 -195 l-6 -80
-13 65 c-8 36 -33 110 -57 165 -54 126 -75 187 -76 228 -1 18 -4 43 -8 57 -7
21 -10 17 -22 -35z"/>
<path d="M1241 2886 c-25 -140 -26 -267 -2 -317 11 -23 11 -23 -6 1 -19 27
-74 90 -195 225 -49 55 -83 103 -93 133 -28 78 -29 79 -33 26 -4 -73 22 -186
59 -252 49 -85 158 -187 304 -284 72 -47 133 -84 137 -82 4 3 -4 28 -17 57
-25 53 -40 136 -70 374 -17 133 -37 229 -52 244 -5 5 -19 -51 -32 -125z"/>
<path d="M3626 4069 c48 -51 44 -42 121 -324 4 -14 -10 -6 -43 26 -27 25 -79
67 -115 92 -37 26 -83 66 -103 89 -36 42 -37 43 -30 13 15 -75 64 -154 136
-217 146 -131 201 -184 220 -213 l19 -30 -3 190 c-3 176 -5 193 -26 233 -42
80 -117 148 -182 167 -24 7 -24 7 6 -26z"/>
<path d="M3860 3838 c14 -45 16 -84 12 -256 l-4 -203 -24 51 c-16 35 -57 83
-136 160 -61 60 -113 108 -115 106 -6 -5 30 -112 52 -156 13 -25 59 -96 103
-157 44 -62 87 -132 97 -155 9 -24 22 -54 27 -68 l10 -25 12 25 c8 14 19 50
26 80 7 30 23 92 37 138 22 72 25 96 21 185 -4 66 -12 122 -26 159 -20 57 -87
168 -101 168 -5 0 0 -24 9 -52z"/>
<path d="M4017 3456 c-4 -10 -7 -31 -7 -48 0 -46 -26 -137 -66 -230 -19 -46
-44 -112 -54 -148 l-19 -65 0 43 c-1 53 -32 142 -68 196 -15 23 -46 77 -70
121 l-43 80 0 -51 c0 -71 23 -184 70 -348 29 -102 40 -157 40 -207 0 -38 3
-69 8 -68 12 0 186 246 203 286 32 75 44 148 43 263 0 77 -5 128 -15 154 -12
31 -17 36 -22 22z"/>
<path d="M3703 3035 c-22 -39 -43 -141 -54 -265 -13 -149 -44 -321 -66 -367
-9 -19 -13 -36 -10 -40 3 -3 66 34 138 82 244 160 334 286 354 493 10 92 -3
111 -25 39 -21 -67 -42 -98 -144 -207 -43 -47 -99 -112 -124 -145 -24 -33 -41
-51 -37 -40 27 76 28 135 7 272 -12 76 -23 152 -25 168 -2 28 -3 29 -14 10z"/>
</g>
</svg>
